<svg width="16" height="16" viewBox="0 0 16 16" fill="none" xmlns="http://www.w3.org/2000/svg">
<path d="M6.49989 11.8749C6.4508 11.8749 6.40222 11.8649 6.3571 11.8456C6.31197 11.8262 6.27125 11.7979 6.23739 11.7624L2.73739 8.26239C2.70292 8.22792 2.67558 8.187 2.65692 8.14196C2.63826 8.09692 2.62866 8.04864 2.62866 7.99989C2.62866 7.95114 2.63826 7.90287 2.65692 7.85783C2.67558 7.81279 2.70292 7.77187 2.73739 7.73739C2.77187 7.70292 2.81279 7.67558 2.85783 7.65692C2.90287 7.63826 2.95114 7.62866 2.99989 7.62866C3.04864 7.62866 3.09692 7.63826 3.14196 7.65692C3.187 7.67558 3.22792 7.70292 3.26239 7.73739L6.49989 10.9686L13.2374 4.23739C13.307 4.16777 13.4014 4.12866 13.4999 4.12866C13.5983 4.12866 13.6928 4.16777 13.7624 4.23739C13.832 4.30701 13.8711 4.40144 13.8711 4.49989C13.8711 4.59835 13.832 4.69277 13.7624 4.76239L6.76239 11.7624C6.72854 11.7979 6.68781 11.8262 6.64269 11.8456C6.59757 11.8649 6.54899 11.8749 6.49989 11.8749Z" fill="#0C1E21"/>
</svg>
