<svg width="18" height="18" viewBox="0 0 18 18" fill="currentColor" xmlns="http://www.w3.org/2000/svg">
<path d="M15.75 3.51562H2.25C2.13811 3.51562 2.03081 3.56007 1.95169 3.63919C1.87257 3.71831 1.82812 3.82561 1.82812 3.9375V13.5C1.82812 13.7611 1.93184 14.0115 2.11644 14.1961C2.30105 14.3807 2.55143 14.4844 2.8125 14.4844H15.1875C15.4486 14.4844 15.699 14.3807 15.8836 14.1961C16.0682 14.0115 16.1719 13.7611 16.1719 13.5V3.9375C16.1719 3.82561 16.1274 3.71831 16.0483 3.63919C15.9692 3.56007 15.8619 3.51562 15.75 3.51562ZM14.6672 4.35938L9 9.55547L3.33281 4.35938H14.6672ZM15.1875 13.6406H2.8125C2.7752 13.6406 2.73944 13.6258 2.71306 13.5994C2.68669 13.5731 2.67188 13.5373 2.67188 13.5V4.89375L8.71172 10.4344C8.79064 10.506 8.89341 10.5457 9 10.5457C9.10659 10.5457 9.20936 10.506 9.28828 10.4344L15.3281 4.89375V13.5C15.3281 13.5373 15.3133 13.5731 15.2869 13.5994C15.2606 13.6258 15.2248 13.6406 15.1875 13.6406Z"/>
</svg>
