<svg width="18" height="18" viewBox="0 0 18 18" fill="currentColor" xmlns="http://www.w3.org/2000/svg">
<path d="M12.375 15.6094C6.86953 15.6094 2.39062 11.1305 2.39062 5.62504C2.39162 4.70091 2.72899 3.80875 3.33973 3.1152C3.95047 2.42165 4.7928 1.97415 5.70937 1.85629C5.92028 1.8316 6.13352 1.87577 6.31727 1.98222C6.50101 2.08866 6.64541 2.25167 6.72891 2.44691L8.14219 5.74457C8.2063 5.89377 8.23277 6.05644 8.21929 6.21828C8.2058 6.38011 8.15276 6.53616 8.06484 6.67269L6.89062 8.45863C6.87902 8.47877 6.87233 8.50137 6.87111 8.52459C6.86989 8.5478 6.87417 8.57098 6.88359 8.59223C7.42369 9.69959 8.32005 10.5935 9.42891 11.1305C9.45043 11.1402 9.47413 11.144 9.4976 11.1415C9.52106 11.139 9.54346 11.1304 9.5625 11.1164L11.3273 9.94222C11.4625 9.8514 11.6184 9.79606 11.7806 9.78132C11.9428 9.76657 12.1061 9.79289 12.2555 9.85785L15.5531 11.2711C15.7484 11.3546 15.9114 11.499 16.0178 11.6828C16.1243 11.8665 16.1684 12.0798 16.1438 12.2907C16.0259 13.2072 15.5784 14.0496 14.8848 14.6603C14.1913 15.271 13.2991 15.6084 12.375 15.6094ZM5.82891 2.69301H5.81484C5.1027 2.78662 4.44868 3.13537 3.97414 3.67456C3.49961 4.21375 3.23676 4.90677 3.23438 5.62504C3.23624 8.04871 4.19986 10.3726 5.91366 12.0864C7.62746 13.8002 9.95133 14.7638 12.375 14.7657C13.0933 14.7633 13.7863 14.5004 14.3255 14.0259C14.8647 13.5514 15.2134 12.8973 15.307 12.1852C15.3094 12.1559 15.3026 12.1265 15.2875 12.1013C15.2723 12.0761 15.2497 12.0562 15.2227 12.0446L11.925 10.6313C11.9032 10.6229 11.8797 10.6198 11.8565 10.6222C11.8333 10.6247 11.811 10.6326 11.7914 10.6453L10.0336 11.8196C9.89128 11.9131 9.72741 11.9686 9.55758 11.9809C9.38775 11.9932 9.21759 11.9619 9.06328 11.8899C7.78431 11.2672 6.74991 10.2353 6.12422 8.95785C6.05115 8.80537 6.01859 8.63664 6.02967 8.46792C6.04075 8.2992 6.09511 8.13618 6.1875 7.99457L7.35469 6.20863C7.36862 6.18959 7.37726 6.1672 7.37973 6.14373C7.3822 6.12027 7.37841 6.09656 7.36875 6.07504L5.95547 2.77738C5.94468 2.75266 5.92702 2.73156 5.90458 2.7166C5.88214 2.70164 5.85587 2.69345 5.82891 2.69301Z"/>
</svg>
